<?xml version="1.0" encoding="utf-8"?>
<!-- Generator: Adobe Illustrator 25.2.1, SVG Export Plug-In . SVG Version: 6.00 Build 0)  -->
<svg version="1.1" id="katman_1" xmlns="http://www.w3.org/2000/svg" xmlns:xlink="http://www.w3.org/1999/xlink" x="0px" y="0px"
	 viewBox="0 0 644.3 191.6" style="enable-background:new 0 0 644.3 191.6;" xml:space="preserve">
<style type="text/css">
	.st0{fill:#FB923C;}
</style>
<path class="st0" d="M635.1,8.7c-5.5-5.4-13-8.7-21.2-8.7H30.4C13.6,0,0,13.6,0,30.4v130.8c0,16.8,13.6,30.4,30.4,30.4h583.5
	c16.8,0,30.4-13.6,30.4-30.4V37.2v-6.8C644.3,21.9,640.8,14.2,635.1,8.7z"/>
<g>
	<path d="M47.2,163.4V26.9h37c9.9,0,17.2,2.4,21.7,7.3c4.5,4.8,6.8,12.8,6.8,23.9v6c0,6.4-1.2,11.6-3.5,15.6
		c-2.3,4-5.8,6.6-10.5,7.8c6.2,1.6,10.3,5.2,12.4,10.9c2.1,5.7,3.1,12.7,3.1,20.9c0,8.8-0.8,16.6-2.5,23.2c-1.7,6.6-4.7,11.8-9,15.4
		c-4.3,3.7-10.5,5.5-18.5,5.5H47.2z M73.9,78.3h5.6c2.5,0,4.2-1,4.9-2.9c0.7-2,1.1-4.3,1.1-7.1V54.6c0-4.4-1.9-6.6-5.8-6.6h-5.7
		V78.3z M76.6,139.4c7.1,0,10.6-3.4,10.6-10.1v-17.1c0-3.9-0.6-6.9-1.7-9.2c-1.2-2.3-3.3-3.4-6.6-3.4h-5v39.6
		C75,139.3,75.9,139.4,76.6,139.4z"/>
	<path d="M123.2,163.4V26.9h54.6v26.4H151v26.6h25.8v25.7H151v31.3h28.6v26.6H123.2z"/>
	<path d="M188.6,163.4V26.9h28.1l12.6,65.4V26.9h26.4v136.6H229l-13.7-68.3v68.3H188.6z"/>
	<path d="M279.5,163.4V53.1h-16.2V26.9H323v26.2h-16.2v110.3H279.5z"/>
	<path d="M362.2,164.7c-11.4,0-19.8-3.2-25.1-9.6c-5.4-6.4-8.1-15.8-8.1-28.2v-100h26.5v98.9c0,2.3,0.1,4.5,0.4,6.6
		c0.3,2.1,0.9,3.8,1.8,5.2c0.9,1.3,2.4,2,4.5,2c2.1,0,3.6-0.7,4.6-2c0.9-1.3,1.5-3,1.7-5.2c0.2-2.1,0.3-4.3,0.3-6.6V26.9h26.5v100
		c0,12.4-2.7,21.8-8.1,28.2C382,161.5,373.6,164.7,362.2,164.7z"/>
	<path d="M417.6,163.4V53.1h-16.2V26.9h59.7v26.2h-16.2v110.3H417.6z"/>
	<path d="M468.7,163.4V26.9h54.6v26.4h-26.8v26.6h25.8v25.7h-25.8v31.3h28.6v26.6H468.7z"/>
	<path d="M534.1,163.4V26.9h27v54.7l12.7-54.7h27.5l-15.3,62.5l18.5,74h-28.3l-14.9-66.1v66.1H534.1z"/>
</g>
</svg>
