<?xml version="1.0" encoding="UTF-8"?>
<svg id="Layer_2" data-name="Layer 2" xmlns="http://www.w3.org/2000/svg" viewBox="0 0 1265.06 393.12">
  <defs>
    <style>
      .cls-1 {
        fill: #000;
        stroke-width: 0px;
      }
    </style>
  </defs>
  <g id="Layer_1-2" data-name="Layer 1">
    <g>
      <path class="cls-1" d="M803.12,94.06h16.25l8.44.94,6.88,1.25,6.56,1.88,5.94,2.19,7.81,3.75,5,2.81,3.44,2.5,4.69,3.44.31-15.62.94-.62h35.31l2.19.62v208.75l-.94,11.56-1.88,9.06-1.88,6.56-2.5,6.88-4.38,9.06-3.75,5.94-3.75,5-2.81,3.44-3.44,3.75-2.5,2.5-3.12,2.5-5.94,4.38-6.25,3.75-5,2.5-5.62,2.5-7.5,2.5-8.75,2.19-10.94,1.88-5.94.62-5.62.31h-7.19l-8.12-.62-11.56-1.88-8.44-1.88-8.12-2.5-7.5-3.12-6.25-3.12-5.62-3.44-5.94-4.38-4.69-4.06-6.56-6.56-2.81-3.44-3.75-5-3.75-6.25-2.81-5.94-3.12-8.75-.31-1.56.31-.31,38.75-.31,1.88,1.56,2.81,3.75,2.81,3.12,2.5,2.19,3.44,2.81,5.62,3.44,5,2.5,5.94,2.19,5.94,1.56,7.81,1.25,3.12.31h13.75l9.06-1.25,5.62-1.25,6.88-2.5,5-2.5,3.75-2.19,3.75-2.81,3.75-3.44,3.12-3.75,2.19-3.44,2.5-4.69,2.5-6.88,1.88-9.06.62-7.5v-25.94l-2.81,2.19-5,4.06-5.94,3.75-5.62,3.12-5.94,2.5-6.56,2.19-8.12,1.88-8.44,1.25-3.12.31h-15.62l-12.19-1.56-7.81-1.88-6.25-1.88-6.56-2.5-7.81-3.75-5.31-3.12-4.06-2.81-5.62-4.38-3.12-2.81-2.5-2.19-3.75-3.75-2.19-2.5-4.06-5-4.06-5.94-3.75-6.25-2.5-4.69-3.12-7.5-3.12-9.38-2.5-11.25-.94-6.56-.62-9.69v-4.38l.94-12.19,1.56-8.75,1.56-6.25,3.44-10.31,3.75-8.12,3.12-5.94,3.12-5,3.44-5,3.75-5,3.75-3.75,1.56-1.88h.62v-.62h.62l.62-1.25,2.5-2.19,3.12-2.81,4.69-3.44,4.06-2.81,4.69-2.81,7.19-3.75,6.56-2.81,9.06-2.81,9.06-1.88,6.88-.94,4.38-.31ZM803.12,132.19l-6.88.94-5.94,1.56-5.94,2.19-6.56,3.44-4.38,3.12-3.12,2.5-3.12,2.81-1.56,1.25-2.19,2.5-3.44,4.06-3.12,4.69-3.12,5.62-2.81,6.25-1.88,5.62-1.88,8.44-.62,5v11.88l.94,5.94,2.19,7.81,2.5,6.25,2.5,5,2.81,4.69,3.75,5,3.12,3.44,3.75,3.75,5,3.75,5,3.12,7.81,3.75,5.94,1.88,7.5,1.56,3.44.31h12.19l7.81-1.25,6.88-1.88,6.25-2.5,5.94-3.12,5.31-3.75,3.44-2.81,3.44-3.12v-.62l1.25-.62,2.5-3.12,2.81-4.06,2.81-4.69,2.5-5,2.19-5.94,1.88-6.88.94-5,.31-4.06v-5l-.62-7.81-1.25-7.81-1.88-6.56-1.88-5-2.81-5.94-3.75-6.25-3.44-4.38-2.81-3.12-3.75-3.75-5-3.75-5-3.12-5.94-2.81-6.56-2.19-6.25-1.56-5-.62h-12.19Z"/>
      <path class="cls-1" d="M1158.5,92.5h4.69l10.94.62,7.5.94,8.44,1.88,6.25,1.88,7.81,3.12,5.94,2.81,8.44,5,5.62,4.06,3.44,2.81,7.5,6.88,2.19,2.5,2.81,3.12,4.06,5.31,4.38,6.56,3.75,6.56,3.44,7.19,3.44,9.06,2.19,7.81,1.56,6.88,1.25,8.12.62,6.25.31,6.25v4.06l-.31,7.81-1.56.94-26.88.31-19.69.62-14.06.94-18.12,1.88-11.25,1.56-15.31,2.81-12.19,2.81-11.25,3.12-10.94,3.44-12.19,4.38-4.69,1.88.62,1.56,2.81,3.75,2.81,3.12,4.06,4.06,4.06,3.12,5.62,3.44,5.94,2.81,7.5,2.5,6.25,1.25,5.94.62h14.06l7.19-.94,8.44-2.19,5-1.88,6.56-3.12,4.38-2.81,4.38-3.12,4.69-4.38,1.56-1.56,1.56.31,3.12,2.81,4.06,3.75,2.5,2.19,4.06,3.75,10,9.38,3.12,2.5.94.94-.31,1.56-3.12,3.12-2.5,2.19-3.44,2.81-4.38,3.44-4.69,3.12-4.69,2.81-7.19,3.75-8.12,3.44-7.81,2.5-7.81,1.88-9.69,1.56-6.88.62h-15.94l-8.12-.94-9.06-1.56-7.81-2.19-5.62-1.88-8.12-3.44-6.56-3.44-5.94-3.75-5.31-4.06-3.44-2.81-3.75-3.44-5.62-5.62-2.81-3.44-3.12-4.06-3.75-5.62-3.75-6.56-2.5-5-3.44-8.12-.94-3.12.31-1.56,9.06-4.38,10.31-4.69,11.56-5,14.38-5.94,14.69-5.62,13.12-4.69,12.5-4.38,14.06-4.69,18.44-5.62,20.31-5.62,21.88-5.62-1.88-5.62-3.75-7.19-3.75-5.31-2.81-3.12-2.19-2.5-4.06-3.44-5.31-3.75-5.94-3.44-6.56-2.81-6.56-2.19-7.81-1.56-5.31-.62h-12.5l-7.81.94-6.56,1.56-5.31,1.88-7.81,3.75-5,3.12-3.12,2.5-4.06,3.44-3.75,3.75-3.44,4.38-3.75,5.62-3.12,5.62-2.5,5.94-1.88,5.94-1.56,7.81-.62,4.38-.31,6.25v4.38l-1.25.94-18.75,8.12-8.12,3.75-5.94,2.81h-.62l-.94-4.06-.94-6.25-.31-3.75v-14.38l.94-8.44,1.25-7.5,2.5-9.38,2.81-7.81,2.19-5,3.12-5.94,3.44-5.62,4.06-5.94,4.38-5.31,3.75-4.38,4.69-4.69,3.44-2.81,4.06-3.44,5-3.44,5.62-3.44,5-2.81,5.31-2.5,6.56-2.5,5.62-1.88,7.5-1.88,10-1.56,10.94-.62Z"/>
      <path class="cls-1" d="M95,93.12h14.06l7.81.62,8.12,1.25,7.5,1.88,8.44,2.81,7.5,3.44,5.31,2.81,5.94,3.75,5,3.75,3.44,2.81,4.69,4.38,2.5,2.5,2.19,2.5,4.06,5,2.81,4.06,3.75,5.94,3.75,7.19,3.44,8.44,2.5,7.81,1.88,7.5,1.56,9.69.62,7.19v21.56l-.62,1.56-.94.31-112.5.31-38.12,1.25h-4.69v-1.25l1.56-1.56,7.19-3.12,9.38-4.06,15.31-6.25,11.25-4.38,11.88-4.38,13.44-4.69,16.25-5.31,10.62-3.12,5.31-1.25,2.81-.31h10.62l-1.88-6.25-2.5-5.94-3.12-5.31-3.12-4.06-3.44-3.75-3.75-3.44-5.62-4.06-5.62-3.12-4.69-2.19-7.5-2.5-5.62-1.25-4.69-.62-4.06-.31h-7.19l-6.56.62-5.31.94-5.62,1.56-6.56,2.81-5.62,3.12-5.94,4.38-4.38,3.75-2.5,2.5-2.81,3.44-3.12,4.06-3.75,6.56-2.81,5.94-2.5,7.5-1.56,8.12-.62,5.62v10.31l1.25,8.12,1.56,6.25,2.5,6.88,3.44,6.88,3.75,5.94,4.06,5,3.44,3.75,3.44,2.81,4.69,3.44,6.56,3.75,5.94,2.5,5.62,1.88,8.12,1.56,7.19.62h7.19l8.12-.94,6.25-1.25,8.44-2.81,5-2.5,5.62-3.12,3.75-2.81,4.38-3.75.31-.62h.62l.62-1.25,1.25-.94,1.56.31,3.12,2.81,4.06,3.44,7.5,6.88,5.31,5,3.44,2.81,4.38,3.44.62,1.25-2.19,2.5-4.38,4.06-5.31,4.06-3.44,2.81-5.31,3.44-6.56,3.75-7.19,3.44-8.75,3.12-9.38,2.5-9.06,1.56-10,.94h-13.12l-6.88-.62-12.19-2.19-8.75-2.5-8.44-3.12-7.19-3.44-5.94-3.44-3.75-2.5-4.69-3.44-4.06-3.44-3.12-2.81-4.38-4.38-2.81-3.44-3.12-3.75-3.12-4.38-3.44-5.31-3.75-6.88-3.44-7.5-3.12-9.38-2.19-8.75-1.56-9.69-.62-6.56v-11.88l.94-9.06,1.25-7.5,2.19-8.75,2.19-6.56,3.44-7.81,3.12-6.25,4.06-6.56,4.06-5.62,3.44-4.38,4.69-5,2.81-2.81,2.5-2.19,4.38-3.75,6.25-4.38,4.06-2.5,6.56-3.75,6.88-3.12,5.94-2.19,7.5-2.19,9.69-1.88,9.06-.94Z"/>
      <path class="cls-1" d="M366.25,96.25h6.56l-.94,1.56-2.81,2.81-2.19,2.5-3.44,3.75-4.38,4.69-3.44,3.75-4.69,5-2.81,3.12-3.44,3.75-3.75,4.06-1.56,1.88-1.25.94-1.25.31h-58.12l-5.62.62-4.06,1.56-3.44,2.19-3.12,2.81-2.19,3.12-1.56,3.12-1.25,4.06-.31,1.56v6.25l.94,3.75,2.19,4.06,1.25,1.25v.62l1.25.62,3.44,2.19,3.75,1.56,4.06.94,40.62.31,7.81.62,6.56,1.56,6.56,2.5,5.94,3.12,5.31,3.75,4.38,3.75,3.12,3.12,4.06,5.31,3.12,5,2.81,5.31,2.5,6.56,1.56,5.94.94,5.94.31,3.44v11.56l-.94,7.19-1.25,5.31-2.19,6.56-3.12,6.56-3.75,5.94-3.44,4.06-3.44,3.75-4.06,3.44-4.69,3.12-6.56,3.44-5.94,2.19-6.56,1.56-4.06.62-5.31.31h-113.75l.31-1.56,4.69-5,3.44-3.75,2.81-3.12,4.38-4.69,2.81-3.12,10-10.62,2.19-2.5,2.5-2.5,76.56-.31,4.38-.62,3.75-1.25,3.44-1.88,3.12-2.81,2.5-2.81,2.5-5,1.25-5,.31-2.81v-3.44l-.94-5-1.56-4.06-2.19-3.75-2.5-2.81-3.12-2.19-3.75-1.88-2.81-.94-2.19-.31-40-.31-6.56-.62-5.62-1.25-5-1.56-5-2.19-5.31-2.81-5.31-3.75-4.06-3.75-3.75-3.75-3.12-4.06-2.5-4.06-2.81-5.31-2.19-5.94-1.88-7.81-.62-8.44.31-6.88,1.56-8.12,2.19-7.19,2.81-6.56,3.44-5.94,3.12-4.38,3.12-3.44,2.19-2.5,3.75-3.44,4.06-3.12,5.94-3.44,5.62-2.5,5-1.56,5.94-1.25,2.81-.31,95.62-.31Z"/>
      <path class="cls-1" d="M588.12,93.12h17.81l9.06.94,9.06,1.88,8.12,2.5,7.81,3.12,5.94,2.81,6.25,3.75,5,3.44,4.38,3.44,4.06,3.44,7.5,7.5,3.44,4.38,4.06,5.62,3.75,6.25,3.75,7.19,2.5,5.62,2.81,7.81,2.5,9.06,1.56,8.12,1.25,11.56.31,4.38v15l-.62.62-156.56.62-.94-.62v-.94l3.44-2.5,7.81-4.38,7.5-4.38,8.75-4.69,6.88-3.75,9.06-4.69,5.94-3.12,4.69-2.5,5.94-2.81,4.69-2.5.94-.31,50.94-.31-2.5-7.19-3.75-7.81-2.5-3.75-2.5-3.12-2.81-3.12-3.44-3.44-4.38-3.44-4.38-2.81-4.38-2.5-5-2.19-6.56-2.19-7.81-1.56-5-.62h-11.56l-7.5.94-6.56,1.56-6.56,2.5-7.19,3.75-5.31,3.75-3.44,2.81-3.75,3.44-3.44,3.75-3.44,4.69-3.12,5-3.44,7.19-2.81,8.44-1.25,6.88-.62,6.88v7.81l.62,5.31v1.88l-1.56,1.56-5,2.5-8.75,4.69-9.69,5-6.25,3.44-1.56.94h-.94l-1.56-5-1.56-8.44-.94-7.81-.31-5v-7.5l.62-8.12,1.25-8.75,2.19-9.06,2.81-8.12,2.81-6.56,4.06-7.81,4.38-6.88,2.5-3.44,3.12-4.06,2.81-3.44,4.38-4.69,2.5-2.5,3.44-2.81,5.62-4.38,6.25-4.06,5.94-3.44,8.12-3.75,10.31-3.44,6.56-1.56,7.19-1.25,6.25-.62Z"/>
      <path class="cls-1" d="M400.31,0h37.81l.31,2.81v94.06l10.31-.31h34.38l1.88.62v7.5l-.31,29.38-.62.31h-45.62v86.25l.31,8.12,1.25,5.62,1.88,5,2.81,5,2.81,3.12,1.56,1.56,3.12,2.81,5.31,3.12,5.62,2.19,6.56,1.25,3.12.31h6.56l2.19-.31h2.5l.31,2.81v34.38l-.31.62-.94.31-13.12-.31-8.12-.94-7.81-1.56-7.5-2.5-6.25-2.81-6.56-3.75-3.75-2.81-3.44-2.81-3.75-3.44-3.12-3.12-2.81-3.44-3.75-5-3.75-6.25-2.5-5-2.5-5.94-2.19-6.88-1.56-7.5-.62-4.38-.31-4.06-.31-110V7.19l.31-6.25.62-.94Z"/>
      <path class="cls-1" d="M1067.81,96.25h2.81l-.62,1.25-3.44,3.44-2.81,3.44-3.75,4.38-2.81,3.12-2.81,3.44-2.81,3.12-2.81,3.44-4.06,4.69-3.44,4.06-2.5,3.12-1.56.94-1.25-.31h-14.06l-6.56.94-5,1.25-5.62,2.5-4.69,2.81-5,4.06-3.44,3.75-3.44,5-3.44,6.56-2.19,5.94-1.56,6.56-.62,7.81-.31,114.38-.94.62h-36.25l-.62-.62-.31-3.44-.31-45V98.44l.31-1.56,16.56-.31h10.94l11.56.31v11.56l-.31,3.75,3.12-2.5,3.75-2.81,4.69-2.81,5-2.5,6.25-2.5,7.19-1.56,3.75-.62,4.06-.31,49.38-.31Z"/>
      <path class="cls-1" d="M535.94,220.31h1.25l2.5,6.56,4.06,7.5,3.12,4.38,2.81,3.12,2.19,2.5,3.12,2.81,4.69,3.44,4.06,2.5,6.88,3.44,6.25,2.19,4.69,1.25,5.31.94,6.56.62h8.44l10-1.25,7.19-1.88,5.94-2.19,5.94-2.81,5.31-3.44,5-3.75,3.44-3.44,1.25-1.56,1.88.31,3.75,3.44,4.38,3.75,4.06,3.75,3.44,2.81,5,4.69,2.5,2.19,4.06,3.12.94.94-.31,1.25-5,5-2.5,2.19-4.69,3.75-5.62,4.06-5,3.12-5,2.81-7.19,3.44-7.5,2.81-8.75,2.5-8.12,1.56-7.19.94-4.38.31h-13.75l-9.69-.94-10.62-2.19-8.44-2.5-8.44-3.44-5.31-2.5-7.5-4.38-5.62-4.06-4.38-3.44-4.69-4.38-4.69-4.69-2.81-3.44-4.06-5.31-3.44-5.31-3.44-5.94-3.75-7.5-.31-2.19,1.25-1.25,5-2.5,7.5-4.06,5-2.81,9.06-4.69,4.38-2.19Z"/>
      <path class="cls-1" d="M795.62,392.5l3.75.31v.31h-4.06l.31-.62Z"/>
    </g>
  </g>
</svg>