<svg width="130" height="31" viewBox="0 0 130 31" fill="none" xmlns="http://www.w3.org/2000/svg">
<g clip-path="url(#clip0_78_18384)">
<path d="M46.1692 15.199C45.5742 13.8446 44.8008 12.6408 43.7894 11.6175C42.7779 10.5942 41.588 9.78153 40.2493 9.17958C38.8809 8.57764 37.4232 8.27667 35.8763 8.27667C34.3294 8.27667 32.9015 8.57764 31.5628 9.17958C30.2241 9.78153 29.0342 10.5942 28.0228 11.6175C27.0113 12.6408 26.2081 13.8446 25.6132 15.199C25.0182 16.5835 24.7207 18.0281 24.7207 19.5932C24.7207 21.1281 25.0182 22.6029 25.6132 23.9874C26.2081 25.3718 27.0113 26.5757 28.0228 27.599C29.0342 28.6223 30.2241 29.4349 31.5628 30.0369C32.0983 30.2776 32.6932 30.6087 33.2882 30.5786C34.1509 30.5485 34.7756 29.6456 35.0136 28.8932C35.4003 27.6291 34.7756 26.064 33.3775 25.2213C32.485 24.8 31.9198 24.3184 31.5628 23.9573C30.9976 23.3854 30.5811 22.7534 30.2539 22.0009C29.9267 21.2485 29.7779 20.466 29.7779 19.6233C29.7779 18.7806 29.9267 17.9679 30.2539 17.2155C30.5811 16.4631 30.9976 15.8009 31.5628 15.2592C32.128 14.7175 32.7527 14.266 33.4964 13.9349C34.2402 13.6039 35.0136 13.4534 35.8466 13.4534C36.6795 13.4534 37.4827 13.6039 38.2264 13.9349C38.9701 14.266 39.6246 14.6874 40.1601 15.2592C40.6955 15.8009 41.1418 16.4631 41.4392 17.2155C42.5399 19.834 42.0342 22.6631 42.0342 25.432V27.8097C42.0342 28.1107 41.945 28.532 42.0342 28.833C42.1829 29.3446 42.4507 29.766 42.8374 30.1272C43.2539 30.4883 43.7894 30.6689 44.3843 30.6689C44.7413 30.6689 45.0685 30.6087 45.3958 30.4582C45.723 30.3077 45.9907 30.1272 46.2287 29.8864C46.4667 29.6456 46.6452 29.3747 46.7939 29.0437C46.9427 28.7126 47.0022 28.3815 47.0022 28.0204V19.6233C47.0319 18.0281 46.7344 16.5835 46.1692 15.199ZM31.6521 26.6058C32.0983 26.9068 32.5445 27.1475 33.0502 27.3582L32.604 28.3815C32.0685 28.1407 31.5331 27.8398 31.0571 27.5087L31.6521 26.6058ZM26.7436 18.1485C26.9221 17.1854 27.2791 16.2524 27.7848 15.4097L28.7367 16.0116C28.2905 16.734 27.993 17.5165 27.8443 18.3592C27.8145 18.5097 27.7848 18.6602 27.7848 18.8408L26.6841 18.7204C26.6841 18.5097 26.7138 18.3291 26.7436 18.1485ZM28.5582 25.1912C27.8443 24.2582 27.3386 23.2349 27.0113 22.1213L28.0823 21.7903C28.3797 22.7534 28.826 23.6563 29.4507 24.499L28.5582 25.1912ZM30.7894 13.7844L30.1051 12.8815C31.2058 12.0388 32.3065 11.5272 33.0502 11.2262L33.4667 12.2796C32.7825 12.5505 31.771 13.032 30.7894 13.7844ZM39.2974 12.0087C38.4347 11.6475 37.3935 11.5272 36.382 11.5874L36.3225 10.4437C37.4827 10.3835 38.7024 10.534 39.7138 10.9553L39.2974 12.0087ZM42.8374 16.6136C42.7482 16.4029 42.6887 16.1922 42.5994 15.9815C42.2424 15.0485 41.8855 14.3563 41.5285 13.8145L42.4507 13.1825C42.8672 13.8145 43.2539 14.567 43.6406 15.5903C43.7299 15.8009 43.7894 16.0116 43.8786 16.2524L42.8374 16.6136ZM43.6704 19.6835L44.771 19.4427C44.9793 20.4961 45.1578 21.6097 45.247 22.7233L44.1463 22.8136C44.0571 21.7602 43.9083 20.7068 43.6704 19.6835ZM45.2768 27.7495L44.1463 27.6592C44.1761 27.0874 44.2058 26.5456 44.2356 26.0039L45.366 26.034C45.366 26.6058 45.3363 27.1776 45.2768 27.7495Z" fill="#0B5CA9"/>
<path d="M69.9672 10.2631C69.8482 9.96211 69.6697 9.66114 69.4615 9.42036C69.2235 9.17958 68.9558 8.9689 68.6285 8.81842C68.3013 8.66793 67.9443 8.57765 67.5873 8.57765C67.1114 8.57765 66.6651 8.72813 66.2487 8.999C65.8322 9.26988 65.505 9.66114 65.2967 10.1427L59.7933 22.3922L54.2304 10.1126C54.0221 9.63105 53.6949 9.23978 53.2784 8.9689C52.8619 8.69803 52.4157 8.54755 51.91 8.54755C51.7315 8.54755 51.553 8.57765 51.4043 8.60774C51.2555 8.63784 51.0473 8.69804 50.8985 8.78833C50.5713 8.93881 50.3036 9.1194 50.0953 9.39027C49.8574 9.63105 49.7086 9.93201 49.5896 10.233C49.4706 10.534 49.4111 10.865 49.4111 11.2262C49.4111 11.5874 49.5004 11.9184 49.6491 12.2495L57.4729 29.0738C57.6812 29.5252 58.0084 29.9165 58.4249 30.2174C58.8413 30.5184 59.3471 30.6689 59.942 30.6689C60.3288 30.6388 60.7155 30.4883 61.1617 30.2475C61.5782 30.0068 61.9352 29.6155 62.1731 29.1039L69.9672 12.3097C70.1159 11.9786 70.2052 11.6475 70.2052 11.2864C70.1457 10.8951 70.0862 10.5641 69.9672 10.2631Z" fill="#0B5CA9"/>
<path d="M78.0593 2.22719C77.9106 1.86603 77.7023 1.56505 77.4644 1.32428C77.1966 1.0835 76.8991 0.872822 76.5719 0.722336C76.2447 0.571851 75.8579 0.511658 75.501 0.511658C75.144 0.511658 74.7573 0.571851 74.43 0.722336C74.0731 0.872822 73.7756 1.0835 73.5376 1.32428C73.2996 1.56505 73.0914 1.86603 72.9426 2.22719C72.7939 2.58836 72.7344 2.94952 72.7344 3.34079C72.7344 3.73205 72.7939 4.09321 72.9426 4.42428C73.0914 4.75535 73.2996 5.05632 73.5376 5.32719C73.7756 5.56797 74.0731 5.77865 74.43 5.92913C74.787 6.07962 75.144 6.16991 75.501 6.16991C75.8579 6.16991 76.2447 6.10972 76.5719 5.92913C76.9289 5.77865 77.2264 5.56797 77.4644 5.32719C77.7321 5.08642 77.9106 4.78544 78.0593 4.42428C78.2081 4.06311 78.2973 3.73205 78.2973 3.34079C78.2676 2.94952 78.2081 2.55826 78.0593 2.22719ZM77.8213 10.1427C77.7023 9.84176 77.5238 9.57088 77.2859 9.33011C77.0479 9.08933 76.8099 8.90875 76.5124 8.78836C76.2149 8.63788 75.8877 8.57768 75.5307 8.57768C75.1737 8.57768 74.8465 8.63788 74.5193 8.78836C74.2218 8.90875 73.9243 9.11943 73.6863 9.33011C73.4483 9.57088 73.2698 9.84176 73.1211 10.1427C72.9724 10.4437 72.9129 10.7748 72.9129 11.1359V28.0505C72.9129 28.3816 72.9724 28.7427 73.1211 29.0437C73.2698 29.3748 73.4483 29.6456 73.6566 29.8563C73.8946 30.0971 74.1623 30.2777 74.4895 30.3981C74.787 30.5486 75.144 30.6088 75.4712 30.6088C75.8282 30.6088 76.1554 30.5486 76.4529 30.3981C76.7504 30.2777 77.0181 30.0971 77.2561 29.8563C77.4941 29.6155 77.6726 29.3447 77.7916 29.0437C77.9106 28.7427 77.9998 28.3816 77.9998 28.0505V11.1359C77.9998 10.8049 77.9403 10.4738 77.8213 10.1427Z" fill="#0B5CA9"/>
<path d="M104.773 15.199C104.178 13.8145 103.405 12.6408 102.393 11.6175C101.382 10.5942 100.192 9.78154 98.8533 9.2097C97.5147 8.60776 96.057 8.30678 94.5101 8.30678C93.3797 8.30678 92.3087 8.45727 91.2973 8.78834C90.2858 9.11941 89.3041 9.57086 88.4414 10.1427V2.73882C88.4414 2.34756 88.382 2.01649 88.263 1.68543C88.144 1.35436 87.9655 1.08348 87.7275 0.842707C87.4895 0.60193 87.2515 0.391248 86.9243 0.270859C86.6268 0.120374 86.2698 0.0601807 85.9128 0.0601807C85.5559 0.0601807 85.2286 0.120374 84.9014 0.270859C84.6039 0.391248 84.3064 0.60193 84.0982 0.842707C83.8602 1.08348 83.6817 1.38446 83.5627 1.68543C83.4437 2.01649 83.3545 2.34756 83.3545 2.73882V19.5932C83.3545 21.1281 83.652 22.6029 84.2469 23.9874C84.8419 25.3718 85.6451 26.5757 86.6565 27.599C87.668 28.6223 88.8579 29.4349 90.2263 30.0369C91.5948 30.6388 93.0227 30.9398 94.5696 30.9398C96.1165 30.9398 97.5742 30.6388 98.9128 30.0369C100.252 29.4349 101.441 28.6223 102.453 27.599C103.464 26.5757 104.268 25.3718 104.833 23.9874C105.398 22.6029 105.695 21.1582 105.695 19.5932C105.636 18.0281 105.338 16.5534 104.773 15.199ZM100.073 21.9709C99.7458 22.7233 99.3293 23.3854 98.7641 23.9272C98.1989 24.499 97.5742 24.9204 96.8305 25.2514C96.0868 25.5825 95.3133 25.733 94.4506 25.733C93.6176 25.733 92.8144 25.5825 92.0707 25.2514C91.327 24.9204 90.7023 24.499 90.1371 23.9272C89.5719 23.3553 89.1554 22.7233 88.8282 21.9709C88.5009 21.2184 88.3522 20.4359 88.3522 19.5932C88.3522 18.7505 88.5009 17.9379 88.8282 17.1854C89.1554 16.433 89.5719 15.7709 90.1371 15.2291C90.7023 14.6874 91.327 14.2359 92.0707 13.9048C92.8144 13.5738 93.5879 13.4233 94.4506 13.4233C95.2836 13.4233 96.0868 13.5738 96.8305 13.9048C97.5742 14.2359 98.1989 14.6573 98.7641 15.2291C99.3293 15.7709 99.7458 16.433 100.073 17.1854C100.371 17.9379 100.549 18.7505 100.549 19.5932C100.549 20.4359 100.4 21.2485 100.073 21.9709Z" fill="#0B5CA9"/>
<path d="M114.53 2.22719C114.382 1.86603 114.173 1.56505 113.936 1.32428C113.668 1.0835 113.37 0.872822 113.043 0.722336C112.716 0.571851 112.329 0.511658 111.972 0.511658C111.615 0.511658 111.228 0.571851 110.901 0.722336C110.544 0.872822 110.247 1.0835 110.009 1.32428C109.741 1.56505 109.563 1.86603 109.414 2.22719C109.265 2.58836 109.176 2.94952 109.176 3.34079C109.176 3.73205 109.235 4.09321 109.414 4.42428C109.563 4.75535 109.771 5.05632 110.009 5.32719C110.247 5.56797 110.544 5.77865 110.901 5.92913C111.258 6.07962 111.615 6.16991 111.972 6.16991C112.329 6.16991 112.716 6.10972 113.043 5.92913C113.4 5.77865 113.698 5.56797 113.936 5.32719C114.203 5.08642 114.382 4.78544 114.53 4.42428C114.679 4.06311 114.768 3.73205 114.768 3.34079C114.739 2.94952 114.679 2.55826 114.53 2.22719ZM114.322 10.1427C114.203 9.84176 114.025 9.57088 113.787 9.33011C113.549 9.08933 113.311 8.90875 113.013 8.78836C112.716 8.63788 112.389 8.57768 112.032 8.57768C111.675 8.57768 111.347 8.63788 111.02 8.78836C110.693 8.90875 110.425 9.11943 110.187 9.33011C109.949 9.57088 109.771 9.84176 109.622 10.1427C109.473 10.4437 109.414 10.7748 109.414 11.1359V28.0505C109.414 28.3816 109.473 28.7427 109.622 29.0437C109.741 29.3748 109.949 29.6456 110.157 29.8563C110.395 30.0971 110.663 30.2777 110.99 30.3981C111.288 30.5486 111.645 30.6088 111.972 30.6088C112.329 30.6088 112.656 30.5486 112.984 30.3981C113.281 30.2777 113.549 30.0971 113.787 29.8563C114.025 29.6155 114.203 29.3447 114.322 29.0437C114.441 28.7427 114.53 28.3816 114.53 28.0505V11.1359C114.501 10.8049 114.441 10.4738 114.322 10.1427Z" fill="#0B5CA9"/>
<path d="M129.732 27.1175C129.613 26.8165 129.435 26.5155 129.226 26.2747C129.018 26.034 128.75 25.8233 128.423 25.7029C128.096 25.5524 127.769 25.4922 127.412 25.4922C126.638 25.4922 125.984 25.2815 125.478 24.8903C124.972 24.4689 124.734 23.867 124.734 23.0543V2.67862C124.734 2.31745 124.675 1.98639 124.526 1.65532C124.377 1.35435 124.199 1.05338 123.961 0.842698C123.723 0.632019 123.425 0.421338 123.128 0.30095C122.831 0.150464 122.474 0.090271 122.117 0.090271C121.76 0.090271 121.462 0.150464 121.165 0.30095C120.867 0.421338 120.599 0.601921 120.391 0.842698C120.183 1.08347 120.004 1.35435 119.856 1.65532C119.737 1.95629 119.647 2.31745 119.647 2.67862V23.1747C119.677 24.2883 119.885 25.2815 120.302 26.2145C120.718 27.1175 121.254 27.9301 121.968 28.5621C122.682 29.2242 123.485 29.7058 124.407 30.067C125.329 30.4281 126.341 30.6087 127.382 30.6087C128.126 30.6087 128.721 30.3679 129.197 29.8864C129.673 29.4048 129.911 28.8029 129.911 28.0806C129.911 27.7796 129.851 27.4485 129.732 27.1175Z" fill="#0B5CA9"/>
<path d="M35.9059 22.1514C37.3845 22.1514 38.5832 20.9387 38.5832 19.4427C38.5832 17.9467 37.3845 16.7339 35.9059 16.7339C34.4272 16.7339 33.2285 17.9467 33.2285 19.4427C33.2285 20.9387 34.4272 22.1514 35.9059 22.1514Z" fill="#0B5CA9"/>
<path d="M19.7822 14.8679C19.2467 13.5437 18.5327 12.3699 17.6105 11.3767C16.6883 10.3835 15.6174 9.60096 14.368 9.02912C13.1185 8.45727 11.7501 8.1864 10.2925 8.1864C8.83479 8.1864 7.49612 8.48737 6.24669 9.02912C4.99726 9.60096 3.89657 10.3835 2.97438 11.3767C2.05218 12.3699 1.33822 13.5437 0.802752 14.8679C0.267283 16.1922 0.0292969 17.6369 0.0292969 19.1417V28.1709C0.0292969 28.532 0.0887937 28.8631 0.237535 29.1942C0.386277 29.4951 0.564766 29.766 0.802752 30.0068C1.04074 30.2476 1.30847 30.4281 1.60596 30.5485C1.90344 30.6689 2.23067 30.7291 2.5579 30.7291C2.91488 30.7291 3.24211 30.6689 3.50985 30.5485C3.80733 30.4281 4.04532 30.2476 4.2833 30.0068C4.49154 29.766 4.67003 29.4951 4.78902 29.1942C4.90802 28.8932 4.96751 28.5621 4.96751 28.1709V19.1417C4.96751 18.3291 5.08651 17.5767 5.35424 16.8544C5.62197 16.132 5.97895 15.5301 6.45493 14.9883C6.90115 14.4767 7.46637 14.0553 8.12083 13.7544C8.77529 13.4534 9.48925 13.3029 10.2627 13.3029C11.0362 13.3029 11.7204 13.4534 12.3451 13.7544C12.9698 14.0553 13.535 14.4466 14.011 14.9582C14.487 15.4699 14.8439 16.0718 15.1414 16.7641C15.4092 17.4563 15.5579 18.1786 15.5877 18.9612C15.5877 19.0213 15.5579 19.1116 15.5579 19.232V28.1408C15.5579 28.5019 15.6174 28.833 15.7661 29.1641C15.9149 29.465 16.0934 29.7359 16.3016 29.9767C16.5396 30.2175 16.8073 30.398 17.1048 30.5184C17.432 30.6388 17.7295 30.699 18.0865 30.699C18.4137 30.699 18.741 30.6388 19.0385 30.5184C19.3359 30.398 19.6037 30.2175 19.8119 29.9767C20.0201 29.7359 20.1986 29.465 20.3176 29.1641C20.4366 28.8631 20.5259 28.532 20.5259 28.1408V19.1116C20.5556 17.6369 20.2879 16.1922 19.7822 14.8679Z" fill="#0B5CA9"/>
</g>
<defs>
<clipPath id="clip0_78_18384">
<rect width="130" height="31" fill="white"/>
</clipPath>
</defs>
</svg>
